<svg width="24" height="24" viewBox="0 0 24 24" fill="none" xmlns="http://www.w3.org/2000/svg">
<path fill-rule="evenodd" clip-rule="evenodd" d="M9.51608 0.0239994C9.0427 0.0725262 8.34865 0.198227 7.89097 0.318348C3.84851 1.37919 0.71787 4.94213 0.09253 9.19364C-0.010873 9.89669 -0.0313098 11.153 0.0500158 11.8086C0.30693 13.8797 1.20226 15.7431 2.6709 17.2633C4.41043 19.064 6.63401 20.0398 9.31644 20.1796L9.9371 20.2119L10.193 20.5248C10.5429 20.9526 11.2877 21.6664 11.7513 22.0183C14.766 24.3063 18.9297 24.6475 22.049 22.8622C22.5614 22.569 23.2627 22.0481 23.6836 21.6483C23.9915 21.3558 24 21.3415 24 21.1147V20.8816L21.2316 18.111L18.4632 15.3405L18.7088 14.9453C19.3954 13.8404 19.868 12.5399 20.0934 11.1347C20.1995 10.4731 20.1979 9.00577 20.0902 8.31439C19.9202 7.22256 19.6453 6.33703 19.1727 5.35965C17.729 2.37321 15.0465 0.446722 11.7672 0.0412534C11.4019 -0.00389764 9.90044 -0.0154315 9.51608 0.0239994ZM11.5504 1.01606L11.7802 1.04709L11.65 1.20154C11.4601 1.42682 11.1998 1.53986 10.6967 1.61544C10.1955 1.69074 9.94057 1.78887 9.60415 2.03582C9.32244 2.24268 9.15239 2.48349 8.95842 2.95009C8.73695 3.48295 8.54598 3.62937 7.89932 3.76239C7.42552 3.85982 7.18553 3.97638 6.87574 4.25957C6.60528 4.50684 6.41104 4.82524 6.29802 5.20661C6.12093 5.80408 5.94005 5.98126 5.3059 6.17846C4.80768 6.33337 4.51655 6.52284 4.27131 6.85174C4.01992 7.1889 3.95172 7.33785 3.85151 7.76831C3.74834 8.21147 3.57458 8.5288 3.36435 8.65797C3.28031 8.70954 3.06394 8.81025 2.88347 8.88171C2.25101 9.13217 1.80613 9.74422 1.66889 10.5526C1.63064 10.7779 1.5593 11.0522 1.51041 11.1621C1.41877 11.368 1.16978 11.6667 1.08986 11.6667C0.9678 11.6667 0.945816 10.1895 1.05545 9.35319C1.42847 6.50661 3.1275 3.91088 5.626 2.3703C6.07847 2.09133 7.04355 1.63401 7.52227 1.47174C8.03464 1.29807 8.78598 1.12131 9.32423 1.0478C9.79896 0.983001 11.1621 0.963543 11.5504 1.01606ZM13.2191 1.36728C13.6351 1.49654 14.5621 1.88677 14.6956 1.98884L14.7894 2.06058L14.6956 2.11342C14.4702 2.24057 14.1066 2.64576 13.9494 2.94494C13.6774 3.46279 13.4334 3.62047 12.7832 3.69877C11.9932 3.7939 11.3878 4.22862 11.1107 4.89979C10.8392 5.55722 10.671 5.7006 9.99925 5.84726C9.48247 5.96007 9.24899 6.07334 8.943 6.35963C8.65754 6.62674 8.53263 6.84114 8.36665 7.34915C8.18534 7.9039 7.99925 8.08357 7.43021 8.25348C6.57434 8.50906 6.13068 8.99597 5.93049 9.89941C5.79315 10.519 5.64489 10.6799 4.91118 11.0054C4.34551 11.2565 3.91507 11.8258 3.79099 12.4872C3.63495 13.3187 3.4851 13.5864 3.04383 13.8216C2.69242 14.009 2.33693 14.3267 2.19392 14.5812C2.13828 14.6802 2.07603 14.7612 2.0555 14.7612C1.97188 14.7612 1.4828 13.6145 1.32385 13.0458L1.23099 12.7135L1.50286 12.564C2.06937 12.2525 2.46288 11.6544 2.60219 10.8931C2.73831 10.149 2.89163 9.94109 3.48486 9.69639C4.16476 9.41592 4.57631 8.91124 4.78124 8.10673C4.95636 7.41906 5.09759 7.25763 5.66382 7.0978C6.11001 6.97186 6.37991 6.82197 6.65482 6.5475C6.9356 6.26712 7.05452 6.06378 7.19921 5.61677C7.28387 5.35519 7.37719 5.17262 7.49016 5.04753C7.70531 4.8093 7.75092 4.78731 8.20957 4.70025C8.96855 4.55626 9.4903 4.16397 9.77871 3.52046C10.0242 2.97279 10.0502 2.93434 10.2823 2.77479C10.4253 2.67642 10.58 2.61678 10.7449 2.59634C11.7127 2.47655 12.25 2.17381 12.6097 1.54558C12.7 1.388 12.7949 1.25888 12.8207 1.2586C12.8464 1.25831 13.0257 1.30722 13.2191 1.36728ZM16.6742 3.48689L17.4025 4.21531L17.3707 4.45485C17.3113 4.90228 17.1011 5.17895 16.6484 5.40536C16.1984 5.63041 15.8011 6.07977 15.6345 6.55223C15.5951 6.66387 15.534 6.94936 15.4987 7.18655C15.4001 7.84961 15.2583 8.01634 14.5579 8.29287C14.3629 8.36985 14.1934 8.48777 13.9918 8.68676C13.6667 9.0076 13.4794 9.35136 13.4027 9.76785C13.3742 9.92257 13.3415 10.0794 13.33 10.1164C13.3167 10.1593 12.8987 9.77427 12.1721 9.04975C11.0424 7.92313 11.0338 7.91586 10.8346 7.91586C10.6545 7.91586 10.6053 7.94333 10.3522 8.18484C9.76038 8.74944 9.01655 9.86181 8.65276 10.7261C8.13383 11.9592 7.96222 12.7995 7.93911 14.2207L7.92233 15.2509L7.79348 15.3193C7.72256 15.357 7.46419 15.4258 7.21928 15.4723C6.40072 15.6277 5.79066 16.0326 5.49372 16.6176C5.41643 16.7699 5.2932 16.9514 5.21984 17.0209C5.05386 17.1783 4.73062 17.3206 4.45374 17.3581C4.24449 17.3865 4.23967 17.3839 3.85099 17.0402C3.63551 16.8496 3.30679 16.5203 3.12056 16.3084L2.7819 15.923L2.81696 15.7055C2.89927 15.1944 3.08306 14.9284 3.51913 14.6893C4.15998 14.3379 4.56876 13.7302 4.70648 12.9242C4.82362 12.2386 4.97938 12.0301 5.54477 11.8022C6.23938 11.5221 6.69214 10.9726 6.8696 10.1944C7.00731 9.59053 7.20807 9.33997 7.65951 9.20869C7.79915 9.16809 7.92814 9.13489 7.94624 9.13489C8.02184 9.13489 8.45374 8.89221 8.62932 8.75108C8.90649 8.52828 9.16682 8.1072 9.30248 7.66235C9.40325 7.33185 9.45332 7.24281 9.63008 7.07989C9.74477 6.97411 9.88736 6.87621 9.94689 6.86238C10.0064 6.84855 10.2089 6.80575 10.3968 6.7673C10.7895 6.68689 10.9438 6.61661 11.283 6.36357C11.5759 6.14503 11.7722 5.87075 11.958 5.42008C12.0342 5.23526 12.1329 5.04378 12.1774 4.99459C12.3247 4.83157 12.6184 4.71938 13.0737 4.65209C13.8875 4.53183 14.4021 4.18474 14.764 3.51216C14.9877 3.09642 15.2394 2.87878 15.5578 2.82575C15.6507 2.81028 15.7479 2.79049 15.7737 2.78173C15.9042 2.73747 15.9999 2.81239 16.6742 3.48689ZM18.6226 6.4624C18.7136 6.70738 18.8204 7.01804 18.86 7.15275L18.9319 7.39768L18.6541 7.54579C18.0705 7.85692 17.7289 8.39531 17.6013 9.20522C17.5483 9.5413 17.4915 9.73217 17.4005 9.87915C17.2709 10.0887 17.2121 10.1279 16.5859 10.4213C15.9831 10.7038 15.587 11.2482 15.4672 11.9588L15.4115 12.2887L14.7327 11.6096L14.0538 10.9306L14.1468 10.7477C14.1979 10.6472 14.2761 10.3856 14.3205 10.1664C14.365 9.94719 14.4288 9.7151 14.4625 9.65063C14.5738 9.43707 14.8317 9.23991 15.1964 9.0896C15.5891 8.92775 15.9082 8.67686 16.1284 8.35673C16.3153 8.08502 16.3961 7.84394 16.4738 7.32594C16.5721 6.67175 16.6945 6.49339 17.2429 6.20514C17.5761 6.02997 17.9537 5.67692 18.0625 5.43884C18.1093 5.33644 18.1233 5.35121 18.2848 5.67327C18.3796 5.86231 18.5316 6.21742 18.6226 6.4624ZM19.157 8.65431C19.2223 9.04173 19.1939 10.3865 19.1087 10.94C18.9238 12.1413 18.491 13.3594 17.8704 14.4255L17.7519 14.6291L16.9438 13.8217L16.1356 13.0143L16.2243 12.8638C16.2732 12.781 16.3544 12.5202 16.4048 12.2842C16.4552 12.0483 16.5209 11.8075 16.5509 11.7492C16.6691 11.5189 16.8975 11.3401 17.2605 11.1937C17.5145 11.0913 17.7134 10.9697 17.8883 10.8098C18.3003 10.4331 18.4723 10.0762 18.5638 9.40786C18.5928 9.19622 18.6489 8.95851 18.6886 8.87969C18.7653 8.72708 19.0265 8.4316 19.0846 8.4316C19.1037 8.4316 19.1363 8.5318 19.157 8.65431ZM11.2329 9.51588L11.6158 9.89688L11.3149 10.3012C10.7292 11.0881 10.273 12.1685 10.0948 13.1905C9.98322 13.8309 10.0305 15.1784 10.1878 15.8396C10.9243 18.9348 13.3361 21.2815 16.3127 21.7993C17.0203 21.9224 18.117 21.9309 18.7736 21.8185C19.4064 21.7101 20.1681 21.4589 20.7136 21.1785C21.0937 20.9833 21.313 20.8407 21.9672 20.3643C22.0156 20.3291 22.1256 20.4128 22.4179 20.7073L22.8047 21.0968L22.6172 21.2641C22.3518 21.5009 21.6505 21.9589 21.2231 22.1743C20.0689 22.7564 18.9728 23.0127 17.6236 23.016C15.2391 23.0218 13.059 22.0869 11.3617 20.3306C9.82343 18.7389 9.00473 16.8376 8.92013 14.6608C8.84354 12.6892 9.41207 10.8721 10.5573 9.42793C10.6852 9.26678 10.8033 9.13489 10.8199 9.13489C10.8365 9.13489 11.0223 9.30635 11.2329 9.51588ZM16.8364 15.1208L21.3209 19.6064L21.1501 19.7423C20.6055 20.1752 19.851 20.535 19.0418 20.7478C18.4257 20.9098 17.1752 20.9532 16.5002 20.8359C14.6237 20.5099 12.9675 19.3262 11.9295 17.5692C11.3272 16.5496 11.016 15.4172 11.016 14.2445C11.016 13.3066 11.1981 12.5232 11.6042 11.7136C11.8042 11.315 12.2541 10.6352 12.3179 10.6352C12.3365 10.6352 14.3698 12.6538 16.8364 15.1208ZM13.5706 14.2853C13.202 14.4052 13.09 14.8268 13.3561 15.093C13.4876 15.2245 13.5105 15.23 13.9222 15.23C14.3339 15.23 14.3568 15.2245 14.4883 15.093C14.7464 14.8348 14.6433 14.3877 14.3041 14.2934C14.117 14.2415 13.7189 14.237 13.5706 14.2853ZM8.22523 16.7422C8.28968 16.9904 8.38502 17.3056 8.43705 17.4425C8.48913 17.5795 8.53169 17.714 8.53169 17.7415C8.53173 17.769 8.44867 17.8382 8.34715 17.8953C8.07519 18.0482 7.75795 18.3758 7.62187 18.6444C7.55611 18.7743 7.48106 18.8936 7.45514 18.9096C7.38638 18.9522 6.38211 18.6055 5.82662 18.3475L5.34804 18.1252L5.61569 17.9518C5.94577 17.7381 6.14676 17.5128 6.32816 17.1534C6.54345 16.7267 6.82826 16.5459 7.4761 16.4245C7.70376 16.3818 7.93424 16.3302 7.98824 16.3097C8.04223 16.2892 8.09126 16.2766 8.09722 16.2817C8.10312 16.2868 8.16073 16.494 8.22523 16.7422ZM14.5829 16.6596C14.2456 16.9815 14.168 17.1644 14.2677 17.4031C14.3389 17.5736 14.5436 17.715 14.719 17.715C14.8811 17.715 15.0692 17.5922 15.2989 17.3368C15.4865 17.128 15.5159 17.0678 15.5159 16.892C15.5159 16.6064 15.372 16.4478 15.0834 16.4152C14.8694 16.3911 14.859 16.3962 14.5829 16.6596ZM16.9273 17.3585C16.7498 17.4568 16.6911 17.6146 16.6901 17.9963C16.6889 18.4172 16.7482 18.5542 16.9808 18.6682C17.2096 18.7802 17.4504 18.7111 17.5818 18.4955C17.6872 18.3226 17.7079 17.7511 17.6161 17.5496C17.512 17.3212 17.1671 17.2255 16.9273 17.3585ZM9.10594 18.9347C9.17681 19.0633 9.23484 19.1743 9.23484 19.1814C9.23484 19.2081 8.53009 19.1356 8.50038 19.1059C8.46185 19.0673 8.84283 18.6994 8.92041 18.7002C8.95153 18.7006 9.03506 18.8062 9.10594 18.9347Z" fill="black"/>
</svg>
