<svg width="36" height="36" viewBox="0 0 36 36" fill="none" xmlns="http://www.w3.org/2000/svg">
<circle cx="18" cy="18" r="17" fill="#9AED27" stroke="#F4F4F4" stroke-width="2"/>
<path fill-rule="evenodd" clip-rule="evenodd" d="M15.6578 7.23201C11.4476 8.16043 8.20941 11.3569 7.28704 15.4948C6.66316 18.2936 7.06379 21.1438 8.41559 23.5248C9.04058 24.6255 10.3401 26.1216 11.2893 26.8329C12.2681 27.5666 14.0336 28.427 15.2113 28.7443C16.0178 28.9617 16.4364 29 18.002 29C19.5769 29 19.9813 28.9626 20.7926 28.7414C23.4362 28.0207 25.7518 26.3449 27.2025 24.1025C28.9451 21.409 29.4356 18.2631 28.6086 15.085C27.6538 11.4166 24.5379 8.31336 20.8484 7.35657C19.2046 6.93019 17.2402 6.88311 15.6578 7.23201ZM20.6021 9.2568C22.3691 9.86121 23.4978 10.5771 24.6707 11.8373C25.9778 13.2418 26.8029 15.0304 27.0731 17.0451C27.3732 19.2835 26.5274 22.0642 24.9729 23.9494C23.8889 25.2642 21.935 26.4829 20.1787 26.9399C18.941 27.2619 17.056 27.2609 15.8252 26.9376C12.5774 26.0846 10.0932 23.6286 9.16013 20.3483C8.83407 19.2023 8.8113 16.9427 9.11448 15.8311C9.82208 13.237 11.5735 11.0448 13.8512 9.90225C15.5262 9.06217 16.3541 8.87942 18.281 8.92494C19.5005 8.95376 19.871 9.00667 20.6021 9.2568ZM17.5076 12.1953C17.3048 12.399 17.2666 13.3682 17.4477 13.7083C17.5901 13.9753 18.1358 13.9989 18.3847 13.749C18.6427 13.4898 18.6233 12.4477 18.3559 12.2047C18.0987 11.9709 17.7351 11.9668 17.5076 12.1953ZM13.7216 13.7939C13.407 14.143 13.4931 14.532 13.9837 14.9772C14.4948 15.4409 14.6745 15.4733 14.988 15.1584C15.3198 14.8252 15.2614 14.5096 14.778 14.024C14.3019 13.546 14.0036 13.481 13.7216 13.7939ZM21.1143 14.024C20.6129 14.5278 20.5484 14.9402 20.9291 15.2081C21.2862 15.4593 21.4091 15.4304 21.9085 14.9772C22.4083 14.5237 22.4961 14.0879 22.1512 13.7744C21.8374 13.4891 21.5868 13.5495 21.1143 14.024ZM16.8299 15.415C14.9664 16.3123 14.5601 18.6301 16.0117 20.0831C16.5564 20.6284 17.1587 20.8709 17.9753 20.8738C18.8505 20.8769 19.5021 20.5867 20.1121 19.922C20.9185 19.0433 21.0853 17.8665 20.5541 16.8018C20.0417 15.7746 19.2672 15.2637 18.1136 15.1916C17.5169 15.1544 17.2888 15.1941 16.8299 15.415ZM12.1066 17.6096C11.8787 17.7548 11.9048 18.4179 12.1455 18.5946C12.3635 18.7547 13.2844 18.7997 13.4922 18.6603C13.5598 18.615 13.6764 18.461 13.7513 18.3181C13.8632 18.1049 13.8557 18.0095 13.7097 17.7856C13.5552 17.5488 13.4475 17.5131 12.8925 17.5145C12.5409 17.5155 12.1872 17.5582 12.1066 17.6096ZM22.0936 17.7179C21.6632 18.1956 22.0684 18.7461 22.8505 18.7461C23.6426 18.7461 23.9182 18.5934 23.9182 18.1547C23.9182 17.6272 23.7483 17.5128 22.9643 17.5128C22.4416 17.5128 22.2344 17.5616 22.0936 17.7179ZM13.9837 21.1696C13.6317 21.489 13.5369 21.6547 13.5369 21.9504C13.5369 22.3308 13.7636 22.558 14.1431 22.558C14.3688 22.558 15.1809 21.8216 15.2716 21.5347C15.3725 21.2156 15.0414 20.7642 14.7067 20.7642C14.5462 20.7642 14.2435 20.9339 13.9837 21.1696ZM20.7541 20.9692C20.4783 21.2753 20.5265 21.5006 20.9743 21.9985C21.4267 22.5014 21.7738 22.6385 22.1218 22.4515C22.5147 22.2403 22.4301 21.7097 21.9221 21.1994C21.4423 20.7175 21.0505 20.6403 20.7541 20.9692ZM17.5169 22.3146C17.268 22.5908 17.2616 23.7045 17.5076 23.9515C17.7326 24.1774 18.1597 24.1774 18.3847 23.9515C18.6457 23.6892 18.6258 22.5404 18.3559 22.2951C18.0881 22.0517 17.7467 22.0596 17.5169 22.3146Z" fill="#5E5C5C"/>
</svg>
