<svg width="36" height="36" viewBox="0 0 36 36" fill="none" xmlns="http://www.w3.org/2000/svg">
<circle cx="18" cy="18" r="17" fill="#00BF66" stroke="white" stroke-width="2"/>
<path fill-rule="evenodd" clip-rule="evenodd" d="M15.8466 6.38606C15.402 6.7138 15.4002 6.78957 15.8105 7.82337C16.4179 9.35296 16.3831 10.215 15.7145 10.215C14.321 10.215 13.123 11.8138 13.1204 13.6759C13.1183 15.3473 12.7088 16.5484 11.5383 18.3145C10.3387 20.1249 10 21.1165 10 22.817C10 24.5482 10.6655 26.2653 11.8724 27.6467C13.4635 29.4687 14.5557 29.9222 17.5223 29.9933C21.6284 30.0919 23.7587 29.1113 25.2195 26.4504C25.9039 25.2032 25.9999 24.7708 25.9999 22.9311C25.9999 20.7127 26.0397 20.8205 23.9847 17.4912C23.5771 16.8308 23.2081 15.7802 23.1252 15.0442C22.8312 12.4308 22.7063 12.0207 21.9347 11.1353C21.4437 10.5716 20.8097 10.1676 20.2506 10.0619L19.3541 9.89228L20.2004 9.46387C21.2036 8.95549 22.2804 7.43953 22.1735 6.686C22.0278 5.66112 19.9579 5.81397 18.6202 6.94845C17.8467 7.60444 17.8303 7.60654 17.5535 7.08558C17.1219 6.2728 16.401 5.97758 15.8466 6.38606ZM20.9502 7.54912C20.5852 8.23631 20.0537 8.63011 19.1309 8.89676C18.1264 9.18726 18.1131 8.92612 19.0799 7.88315C19.9501 6.94426 21.4099 6.68364 20.9502 7.54912ZM19.1057 10.0559C19.1057 10.1125 18.93 10.2268 18.7154 10.3099C18.5008 10.3928 18.3252 10.3464 18.3252 10.2069C18.3252 10.0672 18.5008 9.95284 18.7154 9.95284C18.93 9.95284 19.1057 9.99925 19.1057 10.0559ZM17.1365 11.5118C17.8904 12.0126 17.9074 12.0126 18.6077 11.51C19.5867 10.8073 20.3193 10.8734 21.1815 11.7423C21.7908 12.3566 21.9477 12.7926 22.0996 14.2986C22.2926 16.2076 22.9691 18.1084 23.7709 18.9951C25.8334 21.2756 25.6487 25.0327 23.3596 27.3636C22.071 28.6756 20.8214 29.0809 18.065 29.0809C15.1707 29.0809 13.9659 28.652 12.6638 27.1575C11.4884 25.808 11.0399 24.5742 11.0448 22.7024C11.0492 21.0512 11.0388 21.0774 12.9599 17.923C13.5301 16.9862 13.7344 16.282 13.8176 14.9622C13.9409 13.0118 14.4654 11.7139 15.294 11.3099C16.0896 10.9219 16.2803 10.9429 17.1365 11.5118ZM15.8682 11.7643C15.7017 12.0359 17.1659 13.362 17.6298 13.3597C17.7976 13.3586 18.2703 13.1817 18.68 12.9664C19.09 12.7509 19.4704 12.5747 19.5256 12.5747C19.5807 12.5747 19.626 13.1683 19.626 13.894C19.626 15.3644 20.4416 18.0743 21.2124 19.1653C23.3 22.1199 23.1785 26.006 20.9572 27.3284C19.9637 27.9199 16.0501 27.965 14.961 27.3977C13.2939 26.5288 12.1159 24.2255 12.4421 22.4722C12.5345 21.9759 13.2567 20.6988 14.0466 19.6346C15.9413 17.0827 16.8563 14.0167 15.7233 14.0167C15.4655 14.0167 15.2834 14.4145 15.1676 15.2301C14.9592 16.6986 14.7003 17.2081 13.0801 19.3396C12.3893 20.2484 11.7579 21.3102 11.677 21.6993C11.5958 22.0884 11.4899 22.6101 11.4413 22.8587C11.2868 23.6505 11.8263 25.5215 12.4884 26.49C13.5517 28.0447 14.9571 28.6632 17.6748 28.7723C19.723 28.8544 20.163 28.7899 21.187 28.2582C22.8796 27.3796 23.6582 25.8662 23.6585 23.4554C23.6585 21.5459 23.6049 21.3944 21.7362 18.0342C21.1107 16.91 20.849 16.0214 20.6656 14.4003C20.5321 13.2205 20.2876 12.091 20.1226 11.8904C19.729 11.4124 18.9914 11.4261 18.5853 11.9192C18.4071 12.1355 18.0559 12.3125 17.8049 12.3125C17.5538 12.3125 17.2026 12.1355 17.0244 11.9192C16.662 11.479 16.0901 11.4025 15.8682 11.7643ZM13.9321 20.1403C12.6737 21.7415 12.1237 23.8487 12.964 23.8487C13.3537 23.8487 13.6423 23.3005 13.6423 22.5593C13.6423 22.3065 14.0627 21.5554 14.5768 20.8907C15.4186 19.8016 15.561 19.1294 14.9496 19.1294C14.827 19.1294 14.3692 19.5842 13.9321 20.1403Z" fill="white"/>
</svg>
